<?xml version="1.0" encoding="UTF-8" standalone="no"?>
<svg
   enable-background="new 0 0 52 52"
   id="Layer_1"
   version="1.1"
   viewBox="0 0 52 52"
   xml:space="preserve"
   sodipodi:docname="memtest.svg"
   inkscape:version="1.3.2 (091e20ef0f, 2023-11-25)"
   xmlns:inkscape="http://www.inkscape.org/namespaces/inkscape"
   xmlns:sodipodi="http://sodipodi.sourceforge.net/DTD/sodipodi-0.dtd"
   xmlns="http://www.w3.org/2000/svg"
   xmlns:svg="http://www.w3.org/2000/svg"><defs
     id="defs36" /><sodipodi:namedview
     id="namedview36"
     pagecolor="#ffffff"
     bordercolor="#000000"
     borderopacity="0.25"
     inkscape:showpageshadow="2"
     inkscape:pageopacity="0.0"
     inkscape:pagecheckerboard="0"
     inkscape:deskcolor="#d1d1d1"
     inkscape:zoom="17.519231"
     inkscape:cx="25.97146"
     inkscape:cy="26"
     inkscape:window-width="1872"
     inkscape:window-height="1171"
     inkscape:window-x="0"
     inkscape:window-y="0"
     inkscape:window-maximized="1"
     inkscape:current-layer="g36" /><g
     id="g36"><g
       id="g2"><g
         id="g1"><path
           d="M2,16v20h48V16H2z M48,34H4V18h44V34z"
           fill="#0096E6"
           id="path1" /></g></g><g
       id="g5"><g
         id="g3"><path
           d="M6,20v8h6v-8H6z M10,26H8v-4h2V26z"
           fill="#0096E6"
           id="path2" /></g></g><g
       id="g7"><g
         id="g6"><path
           d="M20.2587891,27.9978638h-6v-8h6V27.9978638z M16.2587891,25.9978638h2v-4h-2V25.9978638z"
           fill="#0096E6"
           id="path5" /></g></g><g
       id="g10"><g
         id="g8"><path
           d="M23,20v8h6v-8H23z M27,26h-2v-4h2V26z"
           fill="#0096E6"
           id="path7" /></g></g><g
       id="g12"><g
         id="g11"><path
           d="M37.4912109,27.9978638h-6v-8h6V27.9978638z M33.4912109,25.9978638h2v-4h-2V25.9978638z"
           fill="#0096E6"
           id="path10" /></g></g><g
       id="g15"><g
         id="g13"><path
           d="M40,20v8h6v-8H40z M44,26h-2v-4h2V26z"
           fill="#0096E6"
           id="path12" /></g></g><g
       id="g17"><g
         id="g16"><rect
           fill="#0096E6"
           height="5.0004883"
           width="2"
           x="44"
           y="29.9978638"
           id="rect15" /></g></g><g
       id="g19"><g
         id="g18"><rect
           fill="#0096E6"
           height="5.0004883"
           width="2"
           x="39.777832"
           y="29.9978638"
           id="rect17" /></g></g><g
       id="g21"><g
         id="g20"><rect
           fill="#0096E6"
           height="5.0004883"
           width="2"
           x="35.5556641"
           y="29.9978638"
           id="rect19" /></g></g><g
       id="g23"><g
         id="g22"><rect
           fill="#0096E6"
           height="5.0004883"
           width="2"
           x="31.3334961"
           y="29.9978638"
           id="rect21" /></g></g><g
       id="g25"><g
         id="g24"><rect
           fill="#0096E6"
           height="5.0004883"
           width="2"
           x="27.1108398"
           y="29.9978638"
           id="rect23" /></g></g><g
       id="g27"><g
         id="g26"><rect
           fill="#0096E6"
           height="5.0004883"
           width="2"
           x="22.8886719"
           y="29.9978638"
           id="rect25" /></g></g><g
       id="g29"><g
         id="g28"><rect
           fill="#0096E6"
           height="5.0004883"
           width="2"
           x="18.6665039"
           y="29.9978638"
           id="rect27" /></g></g><g
       id="g31"><g
         id="g30"><rect
           fill="#0096E6"
           height="5.0004883"
           width="2"
           x="14.4443359"
           y="29.9978638"
           id="rect29" /></g></g><g
       id="g33"><g
         id="g32"><rect
           fill="#0096E6"
           height="5.0004883"
           width="2"
           x="10.222168"
           y="29.9978638"
           id="rect31" /></g></g><g
       id="g35"><g
         id="g34"><rect
           fill="#0096E6"
           height="5.0004883"
           width="2"
           x="6"
           y="29.9978638"
           id="rect33" /></g></g></g></svg>
