<?xml version="1.0" encoding="UTF-8" standalone="no"?>
<svg
   id="Layer_1"
   style="enable-background:new 0 0 128 128;"
   version="1.1"
   viewBox="0 0 128 128"
   xml:space="preserve"
   sodipodi:docname="restart.svg"
   inkscape:version="1.3.2 (091e20ef0f, 2023-11-25)"
   xmlns:inkscape="http://www.inkscape.org/namespaces/inkscape"
   xmlns:sodipodi="http://sodipodi.sourceforge.net/DTD/sodipodi-0.dtd"
   xmlns="http://www.w3.org/2000/svg"
   xmlns:svg="http://www.w3.org/2000/svg"><defs
     id="defs2" /><sodipodi:namedview
     id="namedview2"
     pagecolor="#ffffff"
     bordercolor="#000000"
     borderopacity="0.25"
     inkscape:showpageshadow="2"
     inkscape:pageopacity="0.0"
     inkscape:pagecheckerboard="0"
     inkscape:deskcolor="#d1d1d1"
     inkscape:zoom="7.1171875"
     inkscape:cx="63.929748"
     inkscape:cy="64"
     inkscape:window-width="1872"
     inkscape:window-height="1171"
     inkscape:window-x="0"
     inkscape:window-y="0"
     inkscape:window-maximized="1"
     inkscape:current-layer="Layer_1" /><g
     id="g2"
     style="fill:#0096e6;fill-opacity:1"><path
       d="M96.1,103.6c-10.4,8.4-23.5,12.4-36.8,11.1c-10.5-1-20.3-5.1-28.2-11.8H44v-8H18v26h8v-11.9c9.1,7.7,20.4,12.5,32.6,13.6   c1.9,0.2,3.7,0.3,5.5,0.3c13.5,0,26.5-4.6,37-13.2c19.1-15.4,26.6-40.5,19.1-63.9l-7.6,2.4C119,68.6,112.6,90.3,96.1,103.6z"
       id="path1"
       style="fill:#0096e6;fill-opacity:1" /><path
       d="M103,19.7c-21.2-18.7-53.5-20-76.1-1.6C7.9,33.5,0.4,58.4,7.7,81.7l7.6-2.4C9,59.2,15.5,37.6,31.9,24.4   C51.6,8.4,79.7,9.6,98,26H85v8h26V8h-8V19.7z"
       id="path2"
       style="fill:#0096e6;fill-opacity:1" /></g></svg>
