<?xml version="1.0" encoding="UTF-8" standalone="no"?>
<!-- Created with Inkscape (http://www.inkscape.org/) -->

<svg
   version="1.1"
   id="svg1"
   width="680"
   height="226"
   viewBox="0 0 680 226"
   xmlns="http://www.w3.org/2000/svg"
   xmlns:svg="http://www.w3.org/2000/svg">
  <defs
     id="defs1" />
  <g
     id="layer1"
     transform="translate(-56.693199,-788.02801)">
    <path
       id="path5"
       d="M 425.199,807.84 H 5527.56 V 2508.69 H 425.199 V 807.84"
       style="fill:#e42124;fill-opacity:1;fill-rule:nonzero;stroke:none"
       transform="matrix(0.13333333,0,0,-0.13333333,0,1122.52)" />
    <path
       id="path6"
       d="m 5164.36,1269.88 h 17.43 v 67 l 29.05,-45.28 h 1.87 l 29.07,45.28 v -67 h 17.44 v 94.23 h -18.68 l -28.45,-44.66 -28.48,44.66 h -19.25 z m -67.34,0 h 18.06 v 77.71 h 29.08 v 16.52 h -76.19 v -16.52 h 29.05 z m -1761.51,511.58 c 98.51,0 175.71,-80.96 175.71,-184.31 0,-106.11 -72.88,-184.28 -173.28,-184.28 -98.48,0 -175.66,80.96 -175.66,184.28 0,108.23 72.83,184.31 173.23,184.31 m 0,-522.63 c 197.95,0 353.03,148.65 353.03,338.32 0,191.9 -154.03,338.35 -350.6,338.35 -197.96,0 -353.03,-148.63 -353.03,-338.35 0,-191.86 154.02,-338.32 350.6,-338.32 m 1383.96,522.63 c 98.51,0 175.7,-80.96 175.7,-184.31 0,-106.11 -72.87,-184.28 -173.27,-184.28 -98.48,0 -175.69,80.96 -175.69,184.28 0,108.23 72.88,184.31 173.26,184.31 m 0,-522.63 c 197.95,0 353.01,148.65 353.01,338.32 0,191.9 -154,338.35 -350.58,338.35 -197.95,0 -353.04,-148.63 -353.04,-338.35 0,-191.86 154,-338.32 350.61,-338.32 m -3230.16,176.09 h -408.56 v 685.32 H 898.574 v -850.37 h 590.736 z m 228.82,292.32 c -27.94,-37.51 -45.05,-89.8 -36.44,-156.63 l 314.02,130.28 c -25.39,54.58 -74.53,91.57 -139.31,91.57 -58.9,0 -107.67,-24.12 -138.27,-65.22 m 459.01,-343.5 c -58.18,-67.34 -182.56,-125 -304.2,-125 -217.12,0 -366.49,140.79 -366.49,338.35 0,192.57 149.04,338.4 346.7,338.4 108.8,0 198.18,-37.09 258.55,-107.24 41.5,-48.24 68.46,-111.69 78.48,-182.75 l -459.54,-190.65 c 34.27,-33.81 82.86,-53.09 144.96,-53.09 68.98,0 112.21,13.39 187.87,69.36 z m 2014.25,540.71 -162.5,-445.91 -162.53,445.91 h -205.31 l 269.34,-654.38 h 196.97 l 269.35,654.38 z m -1543.44,11.02 c 158.14,0 265.85,-109.27 265.85,-259.8 v -405.8 h -179.76 v 372.47 c 0,86.59 -76.95,138.3 -151.34,138.3 -96.23,0 -148.2,-71.25 -148.2,-138.3 v -372.47 h -179.74 v 654.64 h 179.79 l -0.05,-93.84 0.05,0.05 -0.05,-0.12 c 52.38,69.94 138.1,104.87 213.45,104.87"
       style="fill:#ffffff;fill-opacity:1;fill-rule:nonzero;stroke:none"
       transform="matrix(0.13333333,0,0,-0.13333333,0,1122.52)" />
  </g>
</svg>
