<?xml version="1.0" encoding="UTF-8" standalone="no"?>
<!-- Created with Inkscape (http://www.inkscape.org/) -->

<svg
   version="1.1"
   id="svg1"
   width="680"
   height="226"
   viewBox="0 0 680 226"
   sodipodi:docname="lenovo_logo_black.svg"
   inkscape:version="1.3.2 (091e20ef0f, 2023-11-25)"
   xmlns:inkscape="http://www.inkscape.org/namespaces/inkscape"
   xmlns:sodipodi="http://sodipodi.sourceforge.net/DTD/sodipodi-0.dtd"
   xmlns="http://www.w3.org/2000/svg"
   xmlns:svg="http://www.w3.org/2000/svg">
  <sodipodi:namedview
     id="namedview1"
     pagecolor="#ffffff"
     bordercolor="#000000"
     borderopacity="0.25"
     inkscape:showpageshadow="2"
     inkscape:pageopacity="0.0"
     inkscape:pagecheckerboard="0"
     inkscape:deskcolor="#d1d1d1"
     inkscape:zoom="1.6205882"
     inkscape:cx="340"
     inkscape:cy="113.23049"
     inkscape:window-width="1872"
     inkscape:window-height="1171"
     inkscape:window-x="0"
     inkscape:window-y="0"
     inkscape:window-maximized="1"
     inkscape:current-layer="svg1" />
  <defs
     id="defs1" />
  <g
     id="layer1">
    <path
       id="path2"
       d="M 0,226.78 H 680.31479 V 0 H 0 v 226.78"
       style="fill:none;fill-opacity:1;fill-rule:nonzero;stroke:none;stroke-width:0.133333" />
    <path
       id="path3"
       d="m 631.88812,165.176 h 2.324 v -8.93333 l 3.87333,6.03733 h 0.24934 l 3.876,-6.03733 v 8.93333 h 2.32533 v -12.564 h -2.49067 l -3.79333,5.95333 -3.79733,-5.95333 h -2.56667 z m -8.97867,0 h 2.408 v -10.36133 h 3.87734 V 152.612 h -10.15867 v 2.20267 h 3.87333 z M 388.04146,96.965327 c 13.13467,0 23.428,10.794673 23.428,24.574673 0,14.148 -9.71733,24.57067 -23.104,24.57067 -13.13067,0 -23.42133,-10.79467 -23.42133,-24.57067 0,-14.43067 9.71066,-24.574673 23.09733,-24.574673 m 0,69.684003 c 26.39333,0 47.07067,-19.82 47.07067,-45.10933 0,-25.586673 -20.53734,-45.113333 -46.74667,-45.113333 -26.39467,0 -47.07066,19.81733 -47.07066,45.113333 0,25.58 20.53599,45.10933 46.74666,45.10933 m 184.528,-69.684003 c 13.13466,0 23.42666,10.794673 23.42666,24.574673 0,14.148 -9.716,24.57067 -23.10266,24.57067 -13.13067,0 -23.42534,-10.79467 -23.42534,-24.57067 0,-14.43067 9.71734,-24.574673 23.10134,-24.574673 m 0,69.684003 c 26.39333,0 47.06799,-19.82 47.06799,-45.10933 0,-25.586673 -20.53333,-45.113333 -46.74399,-45.113333 -26.39334,0 -47.072,19.81733 -47.072,45.113333 0,25.58 20.53333,45.10933 46.748,45.10933 M 141.88147,143.17067 H 87.406796 V 51.794666 H 63.116666 V 165.17733 h 78.764804 z m 30.50933,-38.97734 c -3.72533,5.00134 -6.00667,11.97467 -4.85867,20.88534 L 209.40147,107.708 c -3.38534,-7.27733 -9.93734,-12.209333 -18.57467,-12.209333 -7.85333,0 -14.356,3.216 -18.436,8.694663 m 61.20133,45.80134 c -7.75733,8.97866 -24.34133,16.66666 -40.56,16.66666 -28.94933,0 -48.86533,-18.772 -48.86533,-45.11333 0,-25.676003 19.872,-45.120003 46.22667,-45.120003 14.50666,0 26.42399,4.94533 34.47333,14.29867 5.53333,6.432 9.128,14.892003 10.464,24.366663 l -61.272,25.42 c 4.56933,4.508 11.048,7.07867 19.328,7.07867 9.19733,0 14.96133,-1.78533 25.04933,-9.248 z M 502.15879,77.898667 480.49213,137.35467 458.82146,77.898667 h -27.37467 l 35.912,87.252003 h 26.26267 l 35.91333,-87.252003 z m -205.79199,-1.468 c 21.08533,0 35.44666,14.56933 35.44666,34.640003 v 54.10666 h -23.968 v -49.66266 c 0,-11.54534 -10.26,-18.440003 -20.17866,-18.440003 -12.83067,0 -19.76,9.500003 -19.76,18.440003 v 49.66266 H 243.94146 V 77.891997 h 23.972 l -0.007,12.512 0.007,-0.007 -0.007,0.016 c 6.984,-9.32533 18.41333,-13.98266 28.46,-13.98266"
       style="fill:#ffffff;fill-opacity:1;fill-rule:nonzero;stroke:none;stroke-width:0.133333" />
  </g>
</svg>
